# xmcd
#
# Track frame offsets:
#	150
#	14090
#	27528
#	41601
#	51209
#	70507
#	80614
#	97601
#	111113
#	130045
#	145411
#
# Disc length: 2171 seconds
#
# Revision: 0
# Processed by: cddbd v1.5.2PL0 Copyright (c) Steve Scherf et al.
# Submitted via: EasyCDDAExtractor 16.0.6.1
#
DISCID=8f08790b
DTITLE=Μπιρμπίλη Σούλα - Μικρές Κυκλάδες-Μ. Θεοδωράκης
DYEAR=2010
DGENRE=Έντεχνη λαϊκή
TTITLE0=Μαρίνα [Μ. Κυκλάδες, Οδυσσέας Ελύτης]
TTITLE1=Του μικρού Βοριά [Μ. Κυκλάδες, Οδυσσέας Ελύτης]
TTITLE2=Τα Ελληνάκια [Μ. Κυκλάδες, Οδυσσέας Ελύτης]
TTITLE3=Η Μάγια [Μ. Κυκλάδες, Οδυσσέας Ελύτης]
TTITLE4=Ο κήπος έμπαινε στη θάλασσα [Μ. Κυκλάδες, Οδυσσέας Ελύτης]
TTITLE5=Τά 'δατε, τα 'μάθατε [Μ. Κυκλάδες, Οδυσσέας Ελύτης]
TTITLE6=Το τριζόνι [Μ. Κυκλάδες, Οδυσσέας Ελύτης]
TTITLE7=Το ψωμί είναι στο τραπέζι [''Γειτονιά αγγέλων'' Ιάκ. Καμπανέλλης]
TTITLE8=Προδομένη μου αγάπη [''Τρ. νεκρού αδελφού Μ. Θεοδωράκης]
TTITLE9=Από το παράθυρό σου [''Γειτονιά αγγέλων'' Ιάκ. Καμπανέλλης]
TTITLE10=Μέρα Μαγιού μού μίσεψες [''Επιτάφιος'' Γιάννης Ρίτσος]
EXTD=
EXTT0=
EXTT1=
EXTT2=
EXTT3=
EXTT4=
EXTT5=
EXTT6=
EXTT7=
EXTT8=
EXTT9=
EXTT10=
PLAYORDER=
